<?xml version="1.0" standalone="no"?>
<!DOCTYPE svg PUBLIC "-//W3C//DTD SVG 20010904//EN"
 "http://www.w3.org/TR/2001/REC-SVG-20010904/DTD/svg10.dtd">
<svg version="1.0" xmlns="http://www.w3.org/2000/svg"
 width="512.000000pt" height="512.000000pt" viewBox="0 0 512.000000 512.000000"
 preserveAspectRatio="xMidYMid meet">

<g transform="translate(0.000000,512.000000) scale(0.100000,-0.100000)"
fill="#000000" stroke="none">
<path d="M545 4663 c-65 -37 -106 -96 -113 -163 -4 -47 14 -100 268 -783 150
-402 277 -737 281 -743 5 -6 547 -100 1204 -210 657 -109 1195 -201 1195 -204
0 -3 -540 -95 -1199 -205 l-1200 -200 -271 -728 c-268 -718 -272 -730 -268
-793 5 -78 41 -136 108 -172 38 -20 56 -23 110 -20 63 4 110 27 2010 982 1430
719 1953 987 1977 1011 54 56 66 152 29 224 -8 14 -29 40 -48 58 -21 20 -729
381 -1958 999 l-1925 969 -75 3 c-67 2 -81 -1 -125 -25z"/>
</g>
</svg>
